<svg width="1072" height="1105" viewBox="0 0 1072 1105" fill="none" xmlns="http://www.w3.org/2000/svg">
<path fill-rule="evenodd" clip-rule="evenodd" d="M529.246 503.099C821.478 503.099 1058.48 628.763 1058.48 783.722C1058.48 938.687 821.478 1064.35 529.246 1064.35C237.003 1064.35 0 938.681 0 783.722C0 628.763 237.003 503.099 529.246 503.099Z" fill="#517886"/>
<path fill-rule="evenodd" clip-rule="evenodd" d="M849.478 23.4711L748.717 81.4612V689.09L849.478 631.099V23.4711Z" fill="#BDCEEC"/>
<path fill-rule="evenodd" clip-rule="evenodd" d="M1056.79 441.554L850.007 323.649L836.095 331.647L1042.59 449.732L1056.79 441.554Z" fill="#8AA4C6"/>
<path fill-rule="evenodd" clip-rule="evenodd" d="M760.959 273.283L970.212 392.942L1059.45 341.585L849.953 222.13L760.959 273.283Z" fill="#D9E1F3"/>
<path fill-rule="evenodd" clip-rule="evenodd" d="M761.042 272.768L970.21 392.942V409.067L761.042 287.71V272.768Z" fill="#9CB0D0"/>
<path fill-rule="evenodd" clip-rule="evenodd" d="M749.02 674.041L959.892 794.622L1060.65 736.632L849.537 616.254L749.02 674.041Z" fill="#D9E1F3"/>
<path fill-rule="evenodd" clip-rule="evenodd" d="M735.021 57.7807L971.243 192.863L1072 134.867L835.544 0L735.021 57.7807Z" fill="#D9E1F3"/>
<path fill-rule="evenodd" clip-rule="evenodd" d="M749.506 81.8071L849.475 198.15V139.627L749.506 81.8071Z" fill="#7696CA"/>
<path fill-rule="evenodd" clip-rule="evenodd" d="M882.644 268.353C908.679 270.119 927.028 283.77 923.615 298.837C920.203 313.909 896.324 324.696 870.289 322.936C844.26 321.17 825.911 307.519 829.324 292.447C832.736 277.375 856.615 266.587 882.644 268.353Z" fill="#9CB0D0"/>
<path fill-rule="evenodd" clip-rule="evenodd" d="M880.887 276.887C897.543 278.014 909.276 286.747 907.097 296.385C904.913 306.03 889.642 312.929 872.986 311.803C856.335 310.671 844.596 301.943 846.781 292.299C848.96 282.66 864.236 275.761 880.887 276.887Z" fill="#8C8F93"/>
<path fill-rule="evenodd" clip-rule="evenodd" d="M880.976 272.92C897.632 274.046 909.365 282.779 907.186 292.418C905.007 302.057 889.731 308.962 873.075 307.835C856.424 306.703 844.685 297.976 846.87 288.332C849.054 278.693 864.325 271.788 880.976 272.92Z" fill="#E3E3E3"/>
<path fill-rule="evenodd" clip-rule="evenodd" d="M876.979 294.342C879.074 294.342 880.789 292.627 880.789 290.533V233.749C880.789 231.655 879.074 229.94 876.979 229.94C874.885 229.94 873.17 231.655 873.17 233.749V290.533C873.17 292.627 874.885 294.342 876.979 294.342Z" fill="#AFAFAF"/>
<path fill-rule="evenodd" clip-rule="evenodd" d="M920.232 223.103C911.674 195.048 884.456 180.208 853.91 182.438C845.409 185.551 839.251 196.152 832.109 207.324C826.183 216.572 818.458 225.305 818.458 238.906C818.458 240.666 818.588 242.284 818.825 243.784C832.663 259.366 852.484 267.448 877.455 269.101C889.143 244.554 904.565 229.024 920.232 223.103Z" fill="#4D4D4D"/>
<path fill-rule="evenodd" clip-rule="evenodd" d="M874.493 256.06C866.954 260.746 845.521 253.971 841.168 260.401C851.622 265.353 863.762 268.194 877.448 269.1C889.095 244.633 904.456 229.125 920.071 223.159C911.395 211.772 902.973 218.026 895.831 224.399C890.901 228.808 889.231 246.896 874.493 256.06Z" fill="#363636"/>
<path d="M872.292 212.309C868.449 212.309 864.572 211.523 860.961 209.632C858.38 208.28 857.067 205.801 857.254 202.643C857.593 196.943 863.191 188.895 872.897 185.205L873.333 186.354C864.108 189.863 858.793 197.402 858.482 202.716C858.369 204.589 858.81 207.119 861.532 208.546C874.742 215.462 891.608 206.933 896.029 200.164C897.161 198.426 898.049 195.992 895.836 194.226L896.606 193.264C898.859 195.064 899.023 197.826 897.059 200.837C893.635 206.067 883.119 212.309 872.292 212.309Z" fill="#967E42"/>
<path fill-rule="evenodd" clip-rule="evenodd" d="M894.896 173.059C896.09 182.171 895.609 191.583 896.735 198.041C882.835 204.748 857.875 206.491 863.467 194.47C866.297 188.923 868.148 181.565 869.37 173.059C877.888 173.059 886.389 173.059 894.896 173.059Z" fill="#363636"/>
<path fill-rule="evenodd" clip-rule="evenodd" d="M882.136 165.254C889.177 165.254 894.893 168.746 894.893 173.053C894.893 177.349 889.177 180.847 882.136 180.847C875.095 180.847 869.368 177.349 869.368 173.053C869.373 168.746 875.095 165.254 882.136 165.254Z" fill="#4D4D4D"/>
<path fill-rule="evenodd" clip-rule="evenodd" d="M861.242 210.261C861.888 210.261 862.414 209.735 862.414 209.09C862.414 208.444 861.888 207.912 861.242 207.912C860.597 207.912 860.065 208.439 860.065 209.09C860.065 209.735 860.592 210.261 861.242 210.261Z" fill="#F0CA30"/>
<path fill-rule="evenodd" clip-rule="evenodd" d="M858.098 202.903C858.743 202.903 859.269 202.377 859.269 201.732C859.269 201.087 858.743 200.56 858.098 200.56C857.452 200.56 856.92 201.087 856.92 201.732C856.92 202.371 857.447 202.903 858.098 202.903Z" fill="#F0CA30"/>
<path fill-rule="evenodd" clip-rule="evenodd" d="M873.464 212.836C874.109 212.836 874.635 212.309 874.635 211.664C874.635 211.019 874.109 210.493 873.464 210.493C872.818 210.493 872.292 211.019 872.292 211.664C872.292 212.309 872.818 212.836 873.464 212.836Z" fill="#F0CA30"/>
<path fill-rule="evenodd" clip-rule="evenodd" d="M885.639 209.927C886.285 209.927 886.811 209.401 886.811 208.755C886.811 208.11 886.285 207.584 885.639 207.584C884.994 207.584 884.468 208.11 884.468 208.755C884.468 209.401 884.994 209.927 885.639 209.927Z" fill="#F0CA30"/>
<path fill-rule="evenodd" clip-rule="evenodd" d="M861.199 195.789C861.844 195.789 862.37 195.262 862.37 194.617C862.37 193.972 861.844 193.445 861.199 193.445C860.554 193.445 860.027 193.972 860.027 194.617C860.027 195.262 860.554 195.789 861.199 195.789Z" fill="#F0CA30"/>
<path fill-rule="evenodd" clip-rule="evenodd" d="M846.608 215.547C845.77 216.894 845.793 218.286 846.659 218.654C847.525 219.022 848.906 218.224 849.744 216.877C850.581 215.53 850.559 214.138 849.693 213.77C848.827 213.402 847.446 214.2 846.608 215.547Z" fill="#BD973E"/>
<path fill-rule="evenodd" clip-rule="evenodd" d="M846.11 215.191C845.273 216.538 845.295 217.93 846.161 218.298C847.027 218.666 848.408 217.868 849.246 216.521C850.083 215.174 850.061 213.781 849.195 213.413C848.335 213.045 846.954 213.844 846.11 215.191Z" fill="#F0CA30"/>
<path fill-rule="evenodd" clip-rule="evenodd" d="M847.784 227.377C845.436 225.69 847.162 221.315 849.878 217.54C851.367 215.469 857.321 211.337 858.679 212.31L860.179 213.437C862.715 215.31 862.364 220.149 859.392 224.275C857.412 227.032 852.822 230.869 849.177 228.328L847.784 227.377Z" fill="#BD973E"/>
<path fill-rule="evenodd" clip-rule="evenodd" d="M848.295 217.846C845.488 222.363 845.561 227.021 848.459 228.249C851.357 229.477 855.981 226.811 858.788 222.295C861.595 217.784 861.522 213.12 858.624 211.892C855.726 210.669 851.102 213.335 848.295 217.846Z" fill="#F0CA30"/>
<path fill-rule="evenodd" clip-rule="evenodd" d="M848.708 218.021C846.122 222.181 846.19 226.477 848.861 227.609C851.533 228.741 855.795 226.284 858.381 222.124C860.968 217.965 860.9 213.669 858.228 212.537C855.557 211.405 851.295 213.861 848.708 218.021Z" fill="#BD973E"/>
<path fill-rule="evenodd" clip-rule="evenodd" d="M849.583 218.588C847.438 222.04 847.206 225.589 848.859 227.168C848.932 227.208 849.012 227.241 849.091 227.275C851.644 228.356 855.707 226.013 858.175 222.04C860.326 218.588 860.552 215.039 858.899 213.46C858.826 213.42 858.747 213.386 858.673 213.352C856.12 212.271 852.051 214.614 849.583 218.588Z" fill="#F0CA30"/>
<path fill-rule="evenodd" clip-rule="evenodd" d="M858.348 223.991C857.51 225.338 857.533 226.73 858.393 227.098C859.259 227.466 860.64 226.674 861.478 225.321C862.316 223.974 862.293 222.582 861.427 222.214C860.567 221.846 859.186 222.644 858.348 223.991Z" fill="#BD973E"/>
<path fill-rule="evenodd" clip-rule="evenodd" d="M857.857 223.641C857.019 224.988 857.042 226.38 857.908 226.748C858.773 227.116 860.154 226.318 860.992 224.971C861.83 223.624 861.807 222.231 860.941 221.864C860.07 221.496 858.689 222.288 857.857 223.641Z" fill="#F0CA30"/>
<path fill-rule="evenodd" clip-rule="evenodd" d="M844.762 229.669C843.925 231.016 843.947 232.408 844.813 232.776C845.679 233.144 847.06 232.346 847.898 230.999C848.736 229.652 848.713 228.26 847.847 227.892C846.981 227.524 845.6 228.322 844.762 229.669Z" fill="#BD973E"/>
<path fill-rule="evenodd" clip-rule="evenodd" d="M844.27 229.318C843.432 230.665 843.455 232.057 844.321 232.425C845.187 232.793 846.568 231.995 847.405 230.648C848.243 229.301 848.22 227.909 847.354 227.541C846.488 227.173 845.107 227.971 844.27 229.318Z" fill="#F0CA30"/>
<path fill-rule="evenodd" clip-rule="evenodd" d="M859.431 209.288C858.593 210.635 858.616 212.028 859.476 212.396C860.342 212.764 861.723 211.966 862.561 210.619C863.399 209.271 863.376 207.879 862.51 207.511C861.65 207.149 860.263 207.941 859.431 209.288Z" fill="#BD973E"/>
<path fill-rule="evenodd" clip-rule="evenodd" d="M858.932 208.937C858.095 210.284 858.117 211.676 858.983 212.044C859.849 212.412 861.23 211.614 862.068 210.267C862.905 208.92 862.883 207.528 862.017 207.16C861.151 206.792 859.77 207.584 858.932 208.937Z" fill="#F0CA30"/>
<path fill-rule="evenodd" clip-rule="evenodd" d="M760.959 471.907L970.212 591.566L1059.45 540.215L849.953 420.76L760.959 471.907Z" fill="#D9E1F3"/>
<path fill-rule="evenodd" clip-rule="evenodd" d="M761.042 471.392L970.21 591.566V607.691L761.042 486.34V471.392Z" fill="#9CB0D0"/>
<path fill-rule="evenodd" clip-rule="evenodd" d="M761.042 287.709L849.476 393.7V338.251L761.042 287.709Z" fill="#7696CA"/>
<path fill-rule="evenodd" clip-rule="evenodd" d="M854.476 126.094L735.021 57.7806V683.43L854.476 751.738L971.243 818.512V192.863L854.476 126.094ZM854.476 734.311L749.057 674.029V81.4555L854.476 142.513L957.207 202.015L959.901 794.588L854.476 734.311Z" fill="#A8BCE2"/>
<path fill-rule="evenodd" clip-rule="evenodd" d="M1072 134.868L971.239 192.863V818.507L1072 760.517V134.868Z" fill="#BDCEEC"/>
<path fill-rule="evenodd" clip-rule="evenodd" d="M761.042 486.526L849.476 592.511V537.067L761.042 486.526Z" fill="#7696CA"/>
<path fill-rule="evenodd" clip-rule="evenodd" d="M915.303 486.821C941.338 488.587 959.687 502.239 956.274 517.305C952.862 532.377 928.983 543.164 902.948 541.404C876.919 539.644 858.57 525.987 861.982 510.915C865.395 495.843 889.274 485.056 915.303 486.821Z" fill="#9CB0D0"/>
<path fill-rule="evenodd" clip-rule="evenodd" d="M913.031 496.651C929.688 497.783 941.42 506.516 939.241 516.155C937.062 525.794 921.787 532.699 905.13 531.572C888.479 530.446 876.741 521.713 878.925 512.069C881.104 502.424 896.38 495.525 913.031 496.651Z" fill="#8C8F93"/>
<path fill-rule="evenodd" clip-rule="evenodd" d="M913.125 492.684C929.782 493.816 941.514 502.544 939.335 512.182C937.151 521.826 921.881 528.726 905.224 527.599C888.573 526.473 876.835 517.74 879.019 508.096C881.198 498.457 896.474 491.552 913.125 492.684Z" fill="#E3E3E3"/>
<path fill-rule="evenodd" clip-rule="evenodd" d="M909.13 514.106C911.224 514.106 912.939 512.391 912.939 510.297V453.518C912.939 451.424 911.224 449.709 909.13 449.709C907.036 449.709 905.321 451.424 905.321 453.518V510.297C905.321 512.391 907.031 514.106 909.13 514.106Z" fill="#AFAFAF"/>
<path fill-rule="evenodd" clip-rule="evenodd" d="M952.383 442.872C943.825 414.811 916.607 399.977 886.061 402.201C877.56 405.314 871.402 415.915 864.26 427.087C858.334 436.335 850.608 445.068 850.608 458.669C850.608 460.429 850.739 462.042 850.982 463.547C864.82 479.129 884.641 487.211 909.612 488.864C921.293 464.317 936.716 448.787 952.383 442.872Z" fill="#4D4D4D"/>
<path fill-rule="evenodd" clip-rule="evenodd" d="M906.645 475.824C899.106 480.51 877.673 473.735 873.32 480.165C883.78 485.111 895.914 487.958 909.599 488.864C921.247 464.397 936.608 448.889 952.223 442.929C943.547 431.542 935.125 437.796 927.982 444.168C923.053 448.577 921.378 466.666 906.645 475.824Z" fill="#363636"/>
<path fill-rule="evenodd" clip-rule="evenodd" d="M892.645 430.897C891.496 430.292 888.915 432.929 886.889 436.789C884.857 440.649 884.144 444.271 885.293 444.877C886.442 445.483 889.023 442.839 891.055 438.985C893.081 435.125 893.794 431.503 892.645 430.897Z" fill="#BD973E"/>
<path fill-rule="evenodd" clip-rule="evenodd" d="M892.157 430.619C891.003 430.014 888.427 432.651 886.396 436.511C884.364 440.371 883.651 443.988 884.805 444.594C885.954 445.199 888.535 442.562 890.561 438.702C892.593 434.847 893.306 431.225 892.157 430.619Z" fill="#F0CA30"/>
<path d="M904.438 432.073C900.601 432.073 896.718 431.287 893.101 429.396C890.52 428.043 889.207 425.559 889.394 422.401C889.734 416.701 895.331 408.653 905.038 404.963L905.474 406.112C896.254 409.621 890.939 417.16 890.622 422.474C890.509 424.348 890.951 426.878 893.673 428.309C906.877 435.231 923.755 426.696 928.175 419.927C929.307 418.19 930.196 415.756 927.983 413.99L928.752 413.028C931.005 414.828 931.169 417.59 929.205 420.601C925.787 425.831 915.271 432.073 904.438 432.073Z" fill="#967E42"/>
<path fill-rule="evenodd" clip-rule="evenodd" d="M927.046 392.823C928.24 401.935 927.759 411.347 928.885 417.805C914.985 424.512 890.025 426.255 895.617 414.234C898.447 408.687 900.298 401.329 901.52 392.823C910.038 392.823 918.539 392.823 927.046 392.823Z" fill="#363636"/>
<path fill-rule="evenodd" clip-rule="evenodd" d="M914.288 385.024C921.329 385.024 927.045 388.516 927.045 392.823C927.045 397.113 921.329 400.617 914.288 400.617C907.247 400.617 901.52 397.119 901.52 392.823C901.52 388.51 907.247 385.024 914.288 385.024Z" fill="#4D4D4D"/>
<path fill-rule="evenodd" clip-rule="evenodd" d="M893.389 430.026C894.034 430.026 894.56 429.499 894.56 428.854C894.56 428.209 894.034 427.682 893.389 427.682C892.743 427.682 892.217 428.209 892.217 428.854C892.217 429.499 892.743 430.026 893.389 430.026Z" fill="#F0CA30"/>
<path fill-rule="evenodd" clip-rule="evenodd" d="M890.244 422.668C890.889 422.668 891.415 422.141 891.415 421.496C891.415 420.851 890.889 420.324 890.244 420.324C889.599 420.324 889.072 420.851 889.072 421.496C889.072 422.141 889.599 422.668 890.244 422.668Z" fill="#F0CA30"/>
<path fill-rule="evenodd" clip-rule="evenodd" d="M905.615 432.6C906.26 432.6 906.787 432.073 906.787 431.428C906.787 430.783 906.26 430.257 905.615 430.257C904.97 430.257 904.438 430.783 904.438 431.428C904.438 432.073 904.964 432.6 905.615 432.6Z" fill="#F0CA30"/>
<path fill-rule="evenodd" clip-rule="evenodd" d="M917.791 429.691C918.436 429.691 918.962 429.165 918.962 428.519C918.962 427.874 918.436 427.348 917.791 427.348C917.146 427.348 916.614 427.874 916.614 428.519C916.614 429.165 917.146 429.691 917.791 429.691Z" fill="#F0CA30"/>
<path fill-rule="evenodd" clip-rule="evenodd" d="M893.35 415.553C893.995 415.553 894.521 415.026 894.521 414.381C894.521 413.736 893.995 413.209 893.35 413.209C892.705 413.209 892.178 413.736 892.178 414.381C892.173 415.026 892.705 415.553 893.35 415.553Z" fill="#F0CA30"/>
<path d="M295.792 547.092H273.051V670.419H295.792V547.092Z" fill="#666666"/>
<path d="M301.85 545.31H279.103V668.636H301.85V545.31Z" fill="#363636"/>
<path opacity="0.2" fill-rule="evenodd" clip-rule="evenodd" d="M506.992 787.711C604.261 787.711 683.147 829.537 683.147 881.115C683.147 932.692 604.261 974.518 506.992 974.518C409.723 974.518 330.837 932.692 330.837 881.115C330.837 829.537 409.723 787.711 506.992 787.711Z" fill="#1B3B47"/>
<path fill-rule="evenodd" clip-rule="evenodd" d="M521.889 855.285L543.753 842.431L521.108 839.607L521.889 855.285Z" fill="#222221"/>
<path fill-rule="evenodd" clip-rule="evenodd" d="M520.247 814.857C520.247 814.857 500.97 824.892 505.888 843.971C508.746 849.269 515.685 852.71 521.888 855.291L521.968 849.614C529.399 850.661 537.996 861.692 543.146 865.999C551.404 872.904 570.749 873.051 591.3 870.725C597.169 868.727 599.659 867.482 599.456 865.682C599.32 864.454 597.339 862.501 596.614 861.703C595.386 859.1 574.887 844.65 568.383 841.815C551.749 834.581 543.169 818.021 541.301 814.235C539.394 810.448 533.327 798.925 533.327 798.925C533.327 798.914 533.338 804.5 520.247 814.857Z" fill="#9B9B9A"/>
<path fill-rule="evenodd" clip-rule="evenodd" d="M517.061 792.472C520.174 803.559 499.55 824.127 506.992 837.603C512.743 843.761 531.426 847.638 544.483 863.355C549.277 869.128 573.048 870.571 590.916 868.2C593.242 867.673 595.438 865.885 597.306 865.149C597.373 862.489 597.334 858.776 596.672 857.18C595.568 854.537 576.121 844.768 570.433 840.461C564.654 836.081 547.154 818.96 545.496 815.151C544.907 813.832 545.253 813.402 545.202 810.102C544.641 806.57 544.76 800.288 544.953 795.67C541.908 793.072 529.371 783.637 517.061 792.472Z" fill="#3E3E3D"/>
<path fill-rule="evenodd" clip-rule="evenodd" d="M539.246 826.826C549.756 822.315 553.271 824.642 553.271 824.642L553.333 824.585C553.186 824.257 553.062 823.928 552.954 823.6C552.665 822.678 551.72 822.044 550.164 821.721C548.607 821.404 546.875 821.484 545.03 821.97C543.451 822.389 541.663 822.972 539.631 823.798C533.818 826.187 530.807 830.443 539.246 826.826Z" fill="#9B9B9A"/>
<path fill-rule="evenodd" clip-rule="evenodd" d="M542.141 829.318C552.651 824.807 556.166 827.133 556.166 827.133L556.228 827.076C556.081 826.748 555.957 826.42 555.849 826.092C555.561 825.169 554.621 824.535 553.065 824.213C551.508 823.89 549.776 823.975 547.926 824.462C546.346 824.875 544.552 825.463 542.532 826.29C536.713 828.678 533.702 832.934 542.141 829.318Z" fill="#9B9B9A"/>
<path fill-rule="evenodd" clip-rule="evenodd" d="M545.63 831.847C555.433 826.843 559.548 828.853 559.548 828.853L559.599 828.796C559.372 828.49 559.168 828.179 558.999 827.873C558.495 827.007 557.391 826.458 555.722 826.249C554.058 826.045 552.292 826.232 550.509 826.815C548.975 827.313 547.266 827.998 545.37 828.915C539.919 831.581 537.763 835.865 545.63 831.847Z" fill="#9B9B9A"/>
<path fill-rule="evenodd" clip-rule="evenodd" d="M410.87 910.626L433.441 899.068L411 894.931L410.87 910.626Z" fill="#222221"/>
<path fill-rule="evenodd" clip-rule="evenodd" d="M411.585 870.169C411.585 870.169 391.753 879.066 395.551 898.395C398.092 903.851 404.822 907.688 410.866 910.625L411.274 904.966C418.631 906.443 426.572 917.949 431.462 922.556C439.307 929.937 458.607 931.204 479.259 930.078C485.236 928.425 487.788 927.327 487.692 925.516C487.63 924.283 485.762 922.217 485.089 921.373C484.013 918.702 464.391 903.081 458.063 899.878C441.876 891.688 434.281 874.658 432.634 870.764C430.953 866.87 425.565 855.018 425.565 855.018C425.565 855.018 425.253 860.599 411.585 870.169Z" fill="#9B9B9A"/>
<path fill-rule="evenodd" clip-rule="evenodd" d="M409.714 847.643C412.181 858.889 390.391 878.223 397.036 892.112C402.418 898.592 420.841 903.55 432.958 920.003C437.407 926.048 461.054 928.866 479.035 927.548C481.389 927.163 483.681 925.499 485.594 924.871C485.815 922.216 485.996 918.509 485.425 916.879C484.479 914.179 465.632 903.29 460.199 898.66C454.681 893.951 438.211 875.84 436.779 871.94C436.269 870.588 436.637 870.18 436.773 866.886C436.422 863.326 436.903 857.061 437.367 852.465C434.481 849.686 422.516 839.532 409.714 847.643Z" fill="#3E3E3D"/>
<path fill-rule="evenodd" clip-rule="evenodd" d="M429.853 883.232C440.613 879.344 443.986 881.868 443.986 881.868L444.054 881.817C443.924 881.477 443.816 881.144 443.731 880.81C443.493 879.87 442.594 879.18 441.06 878.772C439.526 878.365 437.788 878.348 435.921 878.721C434.319 879.044 432.497 879.525 430.425 880.232C424.477 882.275 421.217 886.35 429.853 883.232Z" fill="#9B9B9A"/>
<path fill-rule="evenodd" clip-rule="evenodd" d="M432.602 885.886C443.356 881.998 446.729 884.522 446.729 884.522L446.797 884.472C446.667 884.132 446.565 883.798 446.474 883.47C446.236 882.53 445.337 881.845 443.803 881.432C442.269 881.025 440.531 881.008 438.658 881.381C437.062 881.704 435.234 882.185 433.162 882.892C427.22 884.93 423.965 889.005 432.602 885.886Z" fill="#9B9B9A"/>
<path fill-rule="evenodd" clip-rule="evenodd" d="M435.929 888.614C446.003 884.188 449.999 886.435 449.999 886.435L450.055 886.378C449.852 886.061 449.665 885.739 449.506 885.422C449.054 884.528 447.984 883.916 446.331 883.611C444.679 883.305 442.907 883.396 441.096 883.871C439.534 884.278 437.791 884.861 435.838 885.671C430.246 888.008 427.841 892.163 435.929 888.614Z" fill="#9B9B9A"/>
<path fill-rule="evenodd" clip-rule="evenodd" d="M414.72 711.826C438.061 667.419 445.73 710.824 455.414 736.027C448.764 772.431 442.662 841.106 443.528 870.475C436.205 893.176 394.339 882.213 396.931 871.296C398.007 817.664 375 775.334 414.72 711.826Z" fill="#414A6B"/>
<path fill-rule="evenodd" clip-rule="evenodd" d="M510.974 685.394C531.712 639.714 547.316 655.511 558.437 680.114C551.702 716.059 546.048 791.17 551.526 815.105C545.635 831.852 505.558 833.335 505.133 820.827C507.878 753.798 491.821 747.397 510.974 685.394Z" fill="#373D59"/>
<path fill-rule="evenodd" clip-rule="evenodd" d="M297.744 448.256C298.598 447.826 299.436 447.412 300.274 447.011L300.585 446.875C301.536 446.439 302.458 446.037 303.392 445.663L303.947 445.431C304.852 445.075 305.741 444.741 306.63 444.441L306.924 444.345C307.784 444.067 308.622 443.79 309.482 443.552L309.873 443.434C310.546 443.258 311.225 443.1 311.888 442.941L312.799 442.726C313.721 442.517 314.655 442.353 315.606 442.205L315.719 442.194C316.551 442.058 317.383 441.956 318.215 441.877L319.047 441.843C319.636 441.77 320.224 441.736 320.824 441.736L321.605 441.719C322.228 441.719 322.834 441.719 323.428 441.736L324.062 441.753C324.848 441.815 325.624 441.877 326.394 441.973L326.869 442.03C327.508 442.126 328.097 442.228 328.691 442.353L329.32 442.466C330.027 442.607 330.701 442.783 331.368 442.986L331.51 443.003C332.206 443.219 332.914 443.462 333.604 443.717L334.136 443.909C334.719 444.135 335.251 444.373 335.8 444.628L336.208 444.803C336.904 445.137 337.6 445.499 338.273 445.896L320.151 435.351L319.789 435.159C319.234 434.848 318.668 434.548 318.096 434.27L317.66 434.084L316.687 433.636L316.036 433.376L315.493 433.161C314.797 432.918 314.106 432.686 313.41 432.488L313.399 432.465L313.229 432.425C312.567 432.25 311.888 432.069 311.197 431.933L310.586 431.808L309.935 431.673L308.729 431.497L308.254 431.435C307.586 431.339 306.873 431.282 306.177 431.242L305.945 431.22L305.305 431.197C304.688 431.18 304.1 431.163 303.471 431.18L302.673 431.197H302.085L300.902 431.276L300.07 431.339C299.244 431.418 298.412 431.52 297.58 431.656H297.461V431.673C296.516 431.808 295.593 431.995 294.648 432.188L293.737 432.408C293.148 432.544 292.571 432.663 291.982 432.838L291.727 432.895L291.331 433.014C290.499 433.252 289.628 433.529 288.801 433.806L288.501 433.903C287.607 434.191 286.707 434.536 285.79 434.887L285.236 435.125L284.687 435.34C283.934 435.657 283.181 435.974 282.428 436.331L282.134 436.466C281.279 436.863 280.447 437.281 279.581 437.712L278.857 438.085C277.906 438.583 276.955 439.109 275.988 439.67L270.52 442.834C269.513 443.4 268.517 443.994 267.532 444.633L266.581 445.239C265.913 445.68 265.24 446.133 264.583 446.592L263.502 447.333C262.868 447.792 262.274 448.227 261.668 448.68L260.542 449.518C259.948 449.965 259.325 450.457 258.72 450.933L257.689 451.765C257.016 452.336 256.325 452.914 255.641 453.48L254.882 454.125C253.977 454.94 253.065 455.755 252.16 456.604L251.583 457.153C250.966 457.73 250.377 458.273 249.794 458.873L249.528 459.134C248.464 460.198 247.417 461.29 246.37 462.394L246.228 462.552C245.221 463.616 244.247 464.68 243.285 465.79L243.008 466.09L241.893 467.414C241.502 467.867 241.106 468.342 240.733 468.812C240.24 469.389 239.782 469.961 239.312 470.55C238.939 471.025 238.554 471.506 238.186 471.959L237.971 472.231L237.654 472.672C236.465 474.211 235.322 475.774 234.196 477.353L233.85 477.828L233.698 478.049C232.628 479.588 231.558 481.156 230.551 482.752L230.251 483.182L229.821 483.873C229.011 485.18 228.202 486.505 227.41 487.829L227.053 488.446L226.923 488.684C226.029 490.206 225.18 491.745 224.353 493.285L224.133 493.658L223.736 494.428C223.108 495.668 222.469 496.918 221.84 498.158L221.461 498.928L221.24 499.409C220.499 500.994 219.763 502.567 219.073 504.169L218.994 504.333L218.795 504.848C218.167 506.285 217.567 507.734 217.018 509.2L216.724 509.885L216.305 511.006L215.909 512.098C215.552 513.072 215.196 514.062 214.885 515.024L214.664 515.596L214.624 515.749C214.251 516.875 213.9 518.018 213.543 519.161L213.26 520.112C213.062 520.769 212.87 521.42 212.689 522.071L212.53 522.682C212.394 523.214 212.236 523.757 212.117 524.312C211.919 524.997 211.732 525.704 211.585 526.423C211.449 526.972 211.33 527.504 211.206 528.047L210.928 529.191L210.793 530C210.617 530.821 210.453 531.63 210.34 532.434C210.227 532.988 210.119 533.56 210.028 534.115C209.887 534.952 209.768 535.796 209.649 536.622L209.468 537.793L209.412 538.286L209.281 539.435C209.196 540.244 209.117 541.037 209.032 541.835L208.942 543.051C208.879 543.866 208.84 544.653 208.806 545.468L208.749 546.532C208.704 547.675 208.681 548.824 208.681 549.951L208.919 629.788C208.919 636.449 211.291 641.147 215.088 643.343L233.205 653.893C229.391 651.674 227.059 646.988 227.025 640.332L226.81 560.489C226.81 559.357 226.821 558.214 226.861 557.076L226.923 556.007C226.962 555.192 227.025 554.405 227.053 553.59L227.172 552.373C227.234 551.569 227.33 550.794 227.41 549.985L227.528 548.824C227.613 548.27 227.687 547.726 227.766 547.155C227.891 546.323 228.004 545.491 228.162 544.664C228.242 544.11 228.366 543.532 228.434 542.966C228.598 542.174 228.757 541.359 228.915 540.561C229.051 539.905 229.192 539.254 229.345 538.597C229.464 538.065 229.583 537.527 229.707 536.973C229.86 536.265 230.058 535.558 230.239 534.839C230.37 534.307 230.517 533.775 230.658 533.243C230.885 532.394 231.122 531.545 231.383 530.668L231.66 529.728C232.039 528.528 232.396 527.328 232.792 526.146L233.001 525.58C233.341 524.612 233.669 523.621 234.032 522.648L234.45 521.567C234.665 520.956 234.903 520.361 235.141 519.75C235.713 518.29 236.307 516.841 236.924 515.398L237.201 514.724C237.897 513.128 238.616 511.543 239.391 509.97L239.986 508.714C240.603 507.468 241.225 506.223 241.882 504.972L242.482 503.823C243.308 502.295 244.18 500.745 245.051 499.228L245.566 498.379C246.359 497.049 247.14 495.724 247.983 494.417L248.685 493.291C249.715 491.695 250.762 490.132 251.826 488.587L252.318 487.891C253.45 486.306 254.611 484.75 255.782 483.233L256.314 482.514C256.688 482.033 257.067 481.563 257.44 481.116C257.91 480.522 258.369 479.928 258.861 479.339C259.246 478.881 259.636 478.428 260.027 477.958C260.502 477.398 260.961 476.866 261.414 476.334C262.404 475.219 263.355 474.155 264.34 473.091L264.504 472.932C265.551 471.817 266.598 470.742 267.662 469.667C268.358 468.993 269.049 468.342 269.716 467.697L270.294 467.148C271.205 466.31 272.111 465.49 273.044 464.669L273.792 464.024C274.471 463.447 275.139 462.881 275.829 462.303L276.882 461.466C277.465 460.996 278.087 460.52 278.693 460.045L279.808 459.219C280.419 458.755 281.03 458.307 281.642 457.889L282.728 457.113C283.402 456.66 284.07 456.208 284.743 455.772L285.683 455.155C286.673 454.527 287.664 453.932 288.648 453.355L294.144 450.191C295.095 449.637 296.04 449.127 296.991 448.618L297.744 448.256Z" fill="#666666"/>
<path fill-rule="evenodd" clip-rule="evenodd" d="M283.074 443.835C322.031 423.5 356.267 446.326 356.38 485.689L356.595 565.538C356.64 578.94 347.211 595.28 335.552 602.021L248.255 652.415C236.579 659.162 215.995 647.372 215.961 633.964L215.746 554.122C215.644 514.735 243.309 466.791 277.573 447.005L283.074 443.835Z" fill="#D8CA94"/>
<path fill-rule="evenodd" clip-rule="evenodd" d="M340.913 447.627C350.49 454.656 356.325 467.725 356.376 485.683L356.591 565.526C356.636 578.928 347.207 595.268 335.548 602.009L248.252 652.403C245.291 654.113 242.467 655.035 239.903 655.25C238.273 652.749 237.345 649.353 237.334 645.181L237.119 565.339C237.011 525.952 264.682 478.003 298.946 458.222L304.447 455.058C318.065 447.197 330.658 444.984 340.913 447.627Z" fill="#B39E57"/>
<path fill-rule="evenodd" clip-rule="evenodd" d="M583.577 436.239C582.733 439.714 586.678 433.404 589.106 432.034L738.547 347.771C740.975 346.402 742.86 342.157 743.703 338.693C744.546 335.223 742.577 333.435 740.194 334.884L588.733 427.161C586.344 428.61 584.029 432.696 583.577 436.239Z" fill="#7E7E7E"/>
<path fill-rule="evenodd" clip-rule="evenodd" d="M586.113 437.394C585.27 440.869 588.637 434.406 591.071 433.042L741.089 348.932C743.517 347.568 745.402 343.317 746.24 339.854C747.083 336.384 745.113 334.596 742.731 336.045L591.269 428.31C588.886 429.77 586.566 433.851 586.113 437.394Z" fill="#CACACA"/>
<path fill-rule="evenodd" clip-rule="evenodd" d="M741.871 337.432C744.401 334.902 746.948 335.66 746.948 338.45V515.805C746.948 518.596 744.395 522.405 741.877 524.929C739.352 527.453 736.8 526.7 736.8 523.91V346.555C736.8 343.765 739.081 339.662 741.871 337.432Z" fill="#7E7E7E"/>
<path fill-rule="evenodd" clip-rule="evenodd" d="M745.585 339.854C748.115 337.324 750.662 338.082 750.662 340.873V518.228C750.662 521.018 748.115 524.827 745.591 527.351C743.067 529.875 740.514 529.123 740.514 526.332V348.983C740.508 346.193 742.795 342.089 745.585 339.854Z" fill="#CACACA"/>
<path fill-rule="evenodd" clip-rule="evenodd" d="M382.546 414.732C379.303 414.635 337.212 424.568 317.623 435.837C304 445.323 311.646 476.118 310.871 479.91C297.576 500.523 294.944 570.585 293.495 587.757C292.041 604.917 280.365 609.971 292.477 620.402C312.846 647.258 396.515 668.335 415.079 631.473C416.166 595.918 436.575 562.327 452.382 505.413C456.186 491.716 477.144 446.562 460.951 423.221C456.825 417.25 446.915 411.63 440.429 410.379C417.309 405.919 386.588 414.867 382.546 414.732Z" fill="#467472"/>
<path fill-rule="evenodd" clip-rule="evenodd" d="M803.718 586.252L790.185 593.383V858.985L803.718 850.801V586.252Z" fill="#815013"/>
<path fill-rule="evenodd" clip-rule="evenodd" d="M620.957 496.052L790.195 593.383V858.985L620.957 761.659V496.052Z" fill="#6C4412"/>
<path fill-rule="evenodd" clip-rule="evenodd" d="M485.819 750.141L329.218 838.801V1104.41L485.819 1014.69V750.141Z" fill="#815013"/>
<path fill-rule="evenodd" clip-rule="evenodd" d="M159.987 741.47L329.226 838.801V1104.41L159.987 1007.08V741.47Z" fill="#603D0F"/>
<path fill-rule="evenodd" clip-rule="evenodd" d="M831.028 571.06L309.134 868.719L112.593 754.16V742.387L546.16 508.514L831.028 559.288V571.06Z" fill="#815013"/>
<path fill-rule="evenodd" clip-rule="evenodd" d="M831.028 559.293L309.134 856.947L112.593 742.387L634.821 445.022L831.028 559.293Z" fill="#A06117"/>
<path fill-rule="evenodd" clip-rule="evenodd" d="M112.593 742.382L309.135 856.947V868.72L112.123 754.969L112.593 742.382Z" fill="#6C4412"/>
<path fill-rule="evenodd" clip-rule="evenodd" d="M324.583 433.358C299.849 440.557 295.831 476.169 302.153 499.736C302.747 500.97 298.542 558.513 319.738 599.886C333.231 620.239 363.335 602.869 361.518 578.656C368.876 545.648 362.848 510.263 364.105 500.064C366.205 482.972 355.015 432.99 324.583 433.358Z" fill="#528782"/>
<path fill-rule="evenodd" clip-rule="evenodd" d="M594.221 439.426C593.377 442.901 595.2 438.713 597.616 437.337L749.191 350.963C751.613 349.582 753.504 345.349 754.347 341.885C755.19 338.416 753.221 336.627 750.838 338.076L599.377 430.342C596.994 431.796 594.673 435.883 594.221 439.426Z" fill="#7E7E7E"/>
<path fill-rule="evenodd" clip-rule="evenodd" d="M596.759 440.58C595.916 444.055 599.448 437.756 601.876 436.386L751.735 352.118C754.163 350.748 756.048 346.503 756.886 343.039C757.729 339.57 755.759 337.781 753.377 339.236L601.915 431.502C599.532 432.951 597.212 437.037 596.759 440.58Z" fill="#CACACA"/>
<path fill-rule="evenodd" clip-rule="evenodd" d="M727.732 522.596L727.681 514.633L710.067 504.174L709.932 511.95L727.732 522.596Z" fill="#C4C4C4"/>
<path fill-rule="evenodd" clip-rule="evenodd" d="M747.918 503.059L747.94 511.039L727.729 522.597L727.678 514.633L747.918 503.059Z" fill="#6F6F6F"/>
<path fill-rule="evenodd" clip-rule="evenodd" d="M747.919 503.058L730.192 492.639L709.987 504.207L727.679 514.633L747.919 503.058Z" fill="#9B9B9A"/>
<path fill-rule="evenodd" clip-rule="evenodd" d="M224.326 710.297C198.291 712.063 179.942 725.715 183.355 740.781C186.768 755.853 210.647 766.64 236.682 764.88C262.711 763.114 281.06 749.463 277.647 734.391C274.234 719.325 250.356 708.537 224.326 710.297Z" fill="#815013"/>
<path fill-rule="evenodd" clip-rule="evenodd" d="M226.083 718.837C209.427 719.964 197.694 728.702 199.873 738.341C202.058 747.98 217.328 754.884 233.985 753.758C250.636 752.632 262.368 743.899 260.189 734.255C258.01 724.61 242.735 717.705 226.083 718.837Z" fill="#AFAFAF"/>
<path fill-rule="evenodd" clip-rule="evenodd" d="M225.995 714.864C209.338 715.99 197.605 724.723 199.784 734.362C201.969 744.006 217.239 750.905 233.896 749.779C250.547 748.653 262.285 739.92 260.1 730.275C257.916 720.642 242.646 713.737 225.995 714.864Z" fill="#E3E3E3"/>
<path fill-rule="evenodd" clip-rule="evenodd" d="M229.99 736.292C227.896 736.292 226.181 734.577 226.181 732.483V675.704C226.181 673.609 227.896 671.895 229.99 671.895C232.084 671.895 233.799 673.609 233.799 675.704V732.483C233.799 734.577 232.084 736.292 229.99 736.292Z" fill="#AFAFAF"/>
<path fill-rule="evenodd" clip-rule="evenodd" d="M186.74 665.052C195.297 636.991 222.515 622.157 253.061 624.381C261.562 627.494 267.72 638.095 274.863 649.267C280.788 658.515 288.514 667.248 288.514 680.854C288.514 682.614 288.384 684.227 288.146 685.733C274.308 701.309 254.487 709.396 229.516 711.049C217.829 686.503 202.406 670.972 186.74 665.052Z" fill="#4D4D4D"/>
<path fill-rule="evenodd" clip-rule="evenodd" d="M232.478 698.009C240.017 702.695 261.451 695.92 265.803 702.35C255.349 707.296 243.209 710.143 229.524 711.049C217.876 686.582 202.515 671.074 186.9 665.114C195.576 653.727 203.998 659.981 211.141 666.354C216.07 670.757 217.74 688.846 232.478 698.009Z" fill="#363636"/>
<path fill-rule="evenodd" clip-rule="evenodd" d="M246.479 653.082C247.628 652.477 250.209 655.114 252.241 658.974C254.273 662.834 254.986 666.456 253.831 667.062C252.682 667.667 250.101 665.024 248.075 661.164C246.043 657.304 245.33 653.688 246.479 653.082Z" fill="#BD973E"/>
<path fill-rule="evenodd" clip-rule="evenodd" d="M246.96 652.805C248.109 652.199 250.689 654.836 252.716 658.696C254.748 662.556 255.461 666.179 254.312 666.779C253.163 667.384 250.582 664.747 248.55 660.887C246.524 657.032 245.811 653.41 246.96 652.805Z" fill="#F0CA30"/>
<path d="M234.683 654.259C223.85 654.264 213.34 648.022 209.921 642.786C207.952 639.775 208.121 637.013 210.374 635.214L211.144 636.176C208.931 637.942 209.819 640.381 210.951 642.119C215.372 648.888 232.249 657.411 245.453 650.495C248.176 649.069 248.617 646.539 248.504 644.666C248.187 639.351 242.872 631.806 233.647 628.297L234.083 627.148C243.789 630.839 249.393 638.893 249.726 644.592C249.919 647.75 248.6 650.229 246.019 651.582C242.397 653.472 238.52 654.259 234.683 654.259Z" fill="#967E42"/>
<path fill-rule="evenodd" clip-rule="evenodd" d="M212.081 615.002C210.881 624.115 211.368 633.527 210.241 639.985C224.142 646.686 249.102 648.435 243.51 636.413C240.68 630.867 238.829 623.509 237.606 615.002C229.089 615.002 220.588 615.002 212.081 615.002Z" fill="#363636"/>
<path fill-rule="evenodd" clip-rule="evenodd" d="M224.833 607.204C217.792 607.204 212.076 610.696 212.076 615.003C212.076 619.299 217.792 622.796 224.833 622.796C231.874 622.796 237.602 619.299 237.602 615.003C237.602 610.696 231.874 607.204 224.833 607.204Z" fill="#4D4D4D"/>
<path fill-rule="evenodd" clip-rule="evenodd" d="M245.73 652.211C246.375 652.211 246.902 651.684 246.902 651.039C246.902 650.394 246.375 649.868 245.73 649.868C245.085 649.868 244.559 650.394 244.559 651.039C244.553 651.679 245.085 652.211 245.73 652.211Z" fill="#F0CA30"/>
<path fill-rule="evenodd" clip-rule="evenodd" d="M248.881 644.847C249.526 644.847 250.053 644.321 250.053 643.676C250.053 643.03 249.526 642.504 248.881 642.504C248.236 642.504 247.709 643.03 247.709 643.676C247.709 644.321 248.236 644.847 248.881 644.847Z" fill="#F0CA30"/>
<path fill-rule="evenodd" clip-rule="evenodd" d="M233.504 654.779C234.15 654.779 234.676 654.253 234.676 653.608C234.676 652.962 234.15 652.436 233.504 652.436C232.859 652.436 232.333 652.962 232.333 653.608C232.333 654.253 232.859 654.779 233.504 654.779Z" fill="#F0CA30"/>
<path fill-rule="evenodd" clip-rule="evenodd" d="M221.334 651.876C221.979 651.876 222.505 651.35 222.505 650.705C222.505 650.06 221.979 649.528 221.334 649.528C220.688 649.528 220.162 650.054 220.162 650.705C220.162 651.35 220.688 651.876 221.334 651.876Z" fill="#F0CA30"/>
<path fill-rule="evenodd" clip-rule="evenodd" d="M245.769 637.732C246.414 637.732 246.94 637.206 246.94 636.561C246.94 635.916 246.414 635.389 245.769 635.389C245.123 635.389 244.591 635.916 244.591 636.561C244.597 637.206 245.123 637.732 245.769 637.732Z" fill="#F0CA30"/>
<path fill-rule="evenodd" clip-rule="evenodd" d="M310.694 765.718C284.659 767.484 266.31 781.135 269.723 796.201C273.136 811.273 297.015 822.061 323.05 820.301C349.079 818.541 367.428 804.883 364.015 789.811C360.602 774.745 336.724 763.952 310.694 765.718Z" fill="#815013"/>
<path fill-rule="evenodd" clip-rule="evenodd" d="M312.451 774.252C295.794 775.384 284.056 784.111 286.241 793.75C288.425 803.394 303.695 810.293 320.352 809.167C337.003 808.035 348.742 799.308 346.557 789.663C344.378 780.03 329.102 773.125 312.451 774.252Z" fill="#AFAFAF"/>
<path fill-rule="evenodd" clip-rule="evenodd" d="M312.356 770.285C295.699 771.411 283.967 780.144 286.146 789.783C288.33 799.422 303.6 806.327 320.257 805.2C336.908 804.068 348.641 795.341 346.462 785.697C344.283 776.058 329.007 769.159 312.356 770.285Z" fill="#E3E3E3"/>
<path fill-rule="evenodd" clip-rule="evenodd" d="M316.351 791.707C314.257 791.707 312.542 789.992 312.542 787.898V731.113C312.542 729.019 314.257 727.304 316.351 727.304C318.451 727.304 320.16 729.019 320.16 731.113V787.898C320.165 789.992 318.451 791.707 316.351 791.707Z" fill="#AFAFAF"/>
<path fill-rule="evenodd" clip-rule="evenodd" d="M273.106 720.474C281.664 692.418 308.882 677.578 339.428 679.808C347.929 682.921 354.087 693.522 361.229 704.694C367.155 713.942 374.881 722.675 374.881 736.281C374.881 738.042 374.75 739.66 374.513 741.16C360.675 756.736 340.848 764.824 315.883 766.476C304.196 741.924 288.773 726.394 273.106 720.474Z" fill="#4D4D4D"/>
<path fill-rule="evenodd" clip-rule="evenodd" d="M318.845 753.424C326.384 758.111 347.817 751.336 352.17 757.765C341.71 762.718 329.576 765.559 315.89 766.464C304.243 741.997 288.882 726.489 273.267 720.524C281.943 709.137 290.365 715.391 297.507 721.763C302.437 726.178 304.107 744.267 318.845 753.424Z" fill="#363636"/>
<path d="M321.046 709.674C310.214 709.674 299.698 703.431 296.279 698.196C294.315 695.185 294.479 692.428 296.732 690.629L297.502 691.591C295.289 693.357 296.177 695.796 297.309 697.528C301.73 704.297 318.601 712.826 331.811 705.91C334.534 704.484 334.975 701.954 334.862 700.08C334.545 694.766 329.231 687.227 320.005 683.712L320.441 682.563C330.147 686.254 335.751 694.308 336.09 700.007C336.277 703.165 334.958 705.644 332.383 706.997C328.766 708.893 324.889 709.674 321.046 709.674Z" fill="#967E42"/>
<path fill-rule="evenodd" clip-rule="evenodd" d="M298.447 670.423C297.253 679.536 297.734 688.948 296.608 695.4C310.508 702.107 335.468 703.85 329.876 691.829C327.046 686.282 325.195 678.924 323.973 670.418C315.455 670.423 306.954 670.423 298.447 670.423Z" fill="#363636"/>
<path fill-rule="evenodd" clip-rule="evenodd" d="M311.206 662.624C304.165 662.624 298.449 666.116 298.449 670.423C298.449 674.719 304.165 678.217 311.206 678.217C318.247 678.217 323.974 674.719 323.974 670.423C323.969 666.111 318.247 662.624 311.206 662.624Z" fill="#4D4D4D"/>
<path fill-rule="evenodd" clip-rule="evenodd" d="M332.097 707.626C332.742 707.626 333.268 707.1 333.268 706.454C333.268 705.809 332.742 705.283 332.097 705.283C331.452 705.283 330.925 705.809 330.925 706.454C330.92 707.1 331.452 707.626 332.097 707.626Z" fill="#F0CA30"/>
<path fill-rule="evenodd" clip-rule="evenodd" d="M335.247 700.268C335.892 700.268 336.418 699.742 336.418 699.096C336.418 698.451 335.892 697.925 335.247 697.925C334.602 697.925 334.075 698.451 334.075 699.096C334.075 699.742 334.602 700.268 335.247 700.268Z" fill="#F0CA30"/>
<path fill-rule="evenodd" clip-rule="evenodd" d="M319.877 710.2C320.522 710.2 321.049 709.674 321.049 709.029C321.049 708.384 320.522 707.857 319.877 707.857C319.232 707.857 318.706 708.384 318.706 709.029C318.706 709.674 319.232 710.2 319.877 710.2Z" fill="#F0CA30"/>
<path fill-rule="evenodd" clip-rule="evenodd" d="M307.7 707.292C308.346 707.292 308.872 706.765 308.872 706.12C308.872 705.475 308.346 704.948 307.7 704.948C307.055 704.948 306.529 705.475 306.529 706.12C306.529 706.765 307.055 707.292 307.7 707.292Z" fill="#F0CA30"/>
<path fill-rule="evenodd" clip-rule="evenodd" d="M332.141 693.153C332.786 693.153 333.312 692.627 333.312 691.981C333.312 691.336 332.786 690.81 332.141 690.81C331.496 690.81 330.969 691.336 330.969 691.981C330.969 692.627 331.496 693.153 332.141 693.153Z" fill="#F0CA30"/>
<path fill-rule="evenodd" clip-rule="evenodd" d="M346.73 712.912C347.568 714.259 347.545 715.651 346.679 716.019C345.813 716.387 344.432 715.589 343.594 714.242C342.757 712.895 342.779 711.503 343.645 711.135C344.511 710.767 345.892 711.565 346.73 712.912Z" fill="#BD973E"/>
<path fill-rule="evenodd" clip-rule="evenodd" d="M347.221 712.555C348.058 713.902 348.036 715.294 347.17 715.662C346.304 716.03 344.923 715.238 344.085 713.885C343.247 712.538 343.27 711.146 344.136 710.778C345.002 710.41 346.383 711.208 347.221 712.555Z" fill="#F0CA30"/>
<path fill-rule="evenodd" clip-rule="evenodd" d="M345.556 724.747C347.905 723.06 346.179 718.686 343.462 714.91C341.973 712.839 336.019 708.707 334.661 709.681L333.161 710.807C330.625 712.68 330.976 717.52 333.948 721.646C335.929 724.402 340.519 728.239 344.164 725.698L345.556 724.747Z" fill="#BD973E"/>
<path fill-rule="evenodd" clip-rule="evenodd" d="M345.046 715.216C347.854 719.732 347.78 724.39 344.882 725.618C341.984 726.847 337.36 724.181 334.553 719.664C331.746 715.148 331.819 710.49 334.717 709.262C337.615 708.034 342.239 710.699 345.046 715.216Z" fill="#F0CA30"/>
<path fill-rule="evenodd" clip-rule="evenodd" d="M344.633 715.385C347.219 719.545 347.152 723.841 344.48 724.973C341.809 726.105 337.547 723.648 334.96 719.488C332.374 715.328 332.442 711.033 335.113 709.901C337.785 708.774 342.046 711.231 344.633 715.385Z" fill="#BD973E"/>
<path fill-rule="evenodd" clip-rule="evenodd" d="M343.764 715.951C345.909 719.404 346.141 722.958 344.489 724.531C344.415 724.571 344.336 724.605 344.257 724.639C341.71 725.72 337.64 723.377 335.173 719.404C333.022 715.951 332.796 712.403 334.454 710.824C334.528 710.784 334.607 710.75 334.68 710.716C337.227 709.641 341.297 711.984 343.764 715.951Z" fill="#F0CA30"/>
<path fill-rule="evenodd" clip-rule="evenodd" d="M334.996 721.355C335.834 722.702 335.811 724.095 334.945 724.463C334.079 724.83 332.698 724.032 331.861 722.685C331.023 721.338 331.046 719.946 331.912 719.578C332.778 719.21 334.159 720.008 334.996 721.355Z" fill="#BD973E"/>
<path fill-rule="evenodd" clip-rule="evenodd" d="M335.488 721.005C336.326 722.352 336.303 723.744 335.437 724.112C334.571 724.48 333.19 723.682 332.353 722.335C331.515 720.988 331.538 719.596 332.404 719.228C333.27 718.86 334.656 719.658 335.488 721.005Z" fill="#F0CA30"/>
<path fill-rule="evenodd" clip-rule="evenodd" d="M348.576 727.039C349.414 728.386 349.391 729.779 348.525 730.146C347.659 730.514 346.278 729.716 345.44 728.369C344.603 727.022 344.625 725.63 345.491 725.262C346.357 724.894 347.738 725.692 348.576 727.039Z" fill="#BD973E"/>
<path fill-rule="evenodd" clip-rule="evenodd" d="M349.068 726.683C349.905 728.03 349.883 729.422 349.017 729.79C348.151 730.158 346.77 729.36 345.932 728.013C345.095 726.666 345.117 725.273 345.983 724.905C346.849 724.537 348.23 725.336 349.068 726.683Z" fill="#F0CA30"/>
<path fill-rule="evenodd" clip-rule="evenodd" d="M333.906 706.652C334.744 707.999 334.721 709.391 333.861 709.759C332.995 710.127 331.614 709.329 330.777 707.982C329.939 706.635 329.962 705.242 330.827 704.875C331.688 704.512 333.074 705.305 333.906 706.652Z" fill="#BD973E"/>
<path fill-rule="evenodd" clip-rule="evenodd" d="M334.405 706.301C335.243 707.648 335.22 709.041 334.354 709.409C333.488 709.777 332.107 708.979 331.269 707.631C330.432 706.284 330.454 704.892 331.32 704.524C332.186 704.156 333.567 704.954 334.405 706.301Z" fill="#F0CA30"/>
<path fill-rule="evenodd" clip-rule="evenodd" d="M331.975 617.466C365.283 636.404 412.491 646.812 462.077 643.45C548.219 637.615 608.931 592.433 597.645 542.553C593.072 522.342 577.361 504.451 554.569 490.715L331.975 617.466Z" fill="#815013"/>
<path fill-rule="evenodd" clip-rule="evenodd" d="M497.066 638.684C563.987 624.693 607.33 585.358 597.64 542.559C597.255 540.855 596.78 539.168 596.236 537.499L556.85 514.56L417.093 592.076L497.066 638.684Z" fill="#815013"/>
<path fill-rule="evenodd" clip-rule="evenodd" d="M500.32 637.982C565.385 623.414 607.171 584.662 597.64 542.558C597.001 539.729 596.135 536.95 595.071 534.216L556.85 511.956L417.093 589.472L500.32 637.982Z" fill="#815013"/>
<path fill-rule="evenodd" clip-rule="evenodd" d="M439.261 430.987C422.095 453.886 440.585 471.522 464.458 476.559C465.72 476.587 521.786 516.947 576.969 515.057C604.832 518.272 593.603 485.892 583.042 478.438C574.858 472.654 531.261 445.934 504.637 434.088C474.199 406.649 450.965 396.388 439.261 430.987Z" fill="#467472"/>
<path fill-rule="evenodd" clip-rule="evenodd" d="M388.843 416.996C362.848 423.686 369.096 458.929 400.157 487.46C404.023 481.223 408.72 475.337 415.54 469.802C422.225 470.815 429.452 474.403 433.748 476.084C424.415 446.099 427.075 407.159 388.843 416.996Z" fill="white"/>
<path fill-rule="evenodd" clip-rule="evenodd" d="M421.336 391.448C412.727 401.087 400.213 410.018 390.971 418.813C377.495 431.638 399.676 476.113 415.987 468.727C419.711 467.04 423.09 464.018 425.365 460.469C428.473 455.505 431.852 449.189 434.11 443.626C436.657 437.468 426.871 430.121 431.263 425.197L421.336 391.448Z" fill="#C8946B"/>
<path fill-rule="evenodd" clip-rule="evenodd" d="M513.618 401.312C508.649 407.057 506.057 414.211 502.61 420.94C499.729 429.47 489.943 424.636 488.359 438.763C483.735 446.093 473.366 455.256 466.189 460.14C461.305 464.136 454.875 470.577 443.346 469.179C425.671 467.413 422.858 446.336 414.691 432.854C406.569 419.509 423.283 409.445 427.505 397.068C435.151 374.762 455.079 352.202 479.999 360.279C491.138 363.884 506.328 373.67 512.226 384.022C514.326 387.667 518.854 395.602 513.618 401.312Z" fill="#E1B187"/>
<path fill-rule="evenodd" clip-rule="evenodd" d="M454.471 395.602C450 394.516 448.941 394.216 444.555 397.578C440.842 400.425 438.097 398.591 432.862 406.265C431.322 407.839 424.231 392.535 409.753 402.185C406.023 377.893 433.603 338.501 451.845 338.031C471.62 356.861 478.831 363.07 477.235 381.357C473.912 388.618 460.227 397 454.471 395.602Z" fill="#482F16"/>
<path fill-rule="evenodd" clip-rule="evenodd" d="M500.206 353.454C525.89 383.7 531.589 408.297 510.665 409.038C503.556 409.288 491.122 403.305 475.653 383.954C477.108 369.341 473.673 358.808 451.843 338.025C471.629 325.562 493.516 345.575 500.206 353.454Z" fill="#482F16"/>
<path d="M463.049 421.156C461.527 420.607 459.314 419.611 457.655 417.369L434.88 386.422L435.871 385.692L458.646 416.639C460.1 418.615 462.093 419.503 463.468 420.001L463.049 421.156Z" fill="#222221"/>
<path fill-rule="evenodd" clip-rule="evenodd" d="M420.191 390.746C417.52 398.873 418.261 406.39 421.821 407.539C425.381 408.71 431.505 403.26 434.143 395.149C436.814 387.067 435.014 379.37 431.437 378.221C427.872 377.021 422.84 382.669 420.191 390.746Z" fill="#E1B187"/>
<path fill-rule="evenodd" clip-rule="evenodd" d="M475 432.86C470.778 436.324 465.786 437.518 462.65 436.109L462.265 436.426L458.139 431.219C456.787 429.515 457.941 422.718 463.131 418.467C468.316 414.217 474.666 413.385 477.303 416.6L481.022 421.048L480.609 421.388C481.378 424.744 479.222 429.402 475 432.86Z" fill="url(#paint0_linear_3311_60)"/>
<path fill-rule="evenodd" clip-rule="evenodd" d="M476.78 435.034C471.595 439.285 465.251 440.122 462.607 436.902C459.97 433.681 462.03 427.625 467.22 423.369C472.405 419.119 478.755 418.281 481.392 421.502C484.03 424.722 481.97 430.784 476.78 435.034Z" fill="#363636"/>
<path fill-rule="evenodd" clip-rule="evenodd" d="M475.521 433.494C471.701 436.624 467.032 437.241 465.085 434.87C463.143 432.498 464.66 428.038 468.48 424.909C472.301 421.779 476.97 421.162 478.917 423.533C480.858 425.905 479.336 430.365 475.521 433.494Z" fill="#91A2D5"/>
<path fill-rule="evenodd" clip-rule="evenodd" d="M706.925 601.952L567.422 679.695L417.093 592.07L556.85 514.554L706.925 601.952Z" fill="#1F1F1F"/>
<path fill-rule="evenodd" clip-rule="evenodd" d="M706.925 599.354L567.422 677.097L417.093 589.472L556.85 511.956L706.925 599.354Z" fill="#4D4D4D"/>
<path fill-rule="evenodd" clip-rule="evenodd" d="M584.234 636.68C584.234 629.339 572.666 626.407 560.848 626.407C554.373 626.407 537.02 632.548 537.015 636.793L537.111 646.619C537.213 654.627 547.7 661.079 560.616 661.079C569.236 661.079 583.963 657.316 584.127 646.024L584.234 636.68Z" fill="#7E7E7E"/>
<path fill-rule="evenodd" clip-rule="evenodd" d="M563.84 623.595C577.31 624.506 586.801 631.57 585.041 639.369C583.275 647.168 570.92 652.749 557.45 651.837C543.985 650.926 534.488 643.863 536.254 636.064C538.014 628.264 550.369 622.684 563.84 623.595Z" fill="#E3E3E3"/>
<path fill-rule="evenodd" clip-rule="evenodd" d="M563.59 624.705C576.002 625.548 584.752 632.057 583.127 639.239C581.503 646.427 570.116 651.572 557.698 650.728C545.286 649.885 536.542 643.376 538.166 636.188C539.79 629.006 551.178 623.861 563.59 624.705Z" fill="#4D4D4D"/>
<path fill-rule="evenodd" clip-rule="evenodd" d="M563.596 633.443C572.341 634.038 579.263 637.439 582.019 641.916C578.533 647.655 568.515 651.464 557.699 650.74C548.949 650.14 542.033 646.733 539.271 642.256C542.763 636.511 552.781 632.713 563.596 633.443Z" fill="#979797"/>
<path fill-rule="evenodd" clip-rule="evenodd" d="M554.498 635.061C555.143 635.061 555.669 634.535 555.669 633.89C555.669 633.244 555.143 632.718 554.498 632.718C553.852 632.718 553.326 633.244 553.326 633.89C553.326 634.535 553.852 635.061 554.498 635.061Z" fill="#F0CA30"/>
<path fill-rule="evenodd" clip-rule="evenodd" d="M562.817 635.803C563.864 635.803 564.724 634.949 564.724 633.901C564.724 632.849 563.869 631.994 562.817 631.994C561.764 631.994 560.909 632.849 560.909 633.901C560.909 634.949 561.769 635.803 562.817 635.803Z" fill="#F0CA30"/>
<path fill-rule="evenodd" clip-rule="evenodd" d="M548.834 640.512C549.887 640.512 550.736 639.658 550.736 638.611C550.736 637.558 549.881 636.703 548.834 636.703C547.787 636.703 546.927 637.558 546.927 638.611C546.927 639.658 547.787 640.512 548.834 640.512Z" fill="#F0CA30"/>
<path fill-rule="evenodd" clip-rule="evenodd" d="M566.121 638.248C566.767 638.248 567.293 637.721 567.293 637.076C567.293 636.431 566.767 635.905 566.121 635.905C565.476 635.905 564.95 636.431 564.95 637.076C564.95 637.721 565.476 638.248 566.121 638.248Z" fill="#F0CA30"/>
<path fill-rule="evenodd" clip-rule="evenodd" d="M623.903 567.682L686.042 605.348C686.365 605.546 686.472 605.97 686.274 606.299C686.076 606.627 685.646 606.729 685.323 606.531L623.185 568.865C622.856 568.667 622.754 568.237 622.952 567.914C623.151 567.586 623.575 567.484 623.903 567.682Z" fill="#CACACA"/>
<path fill-rule="evenodd" clip-rule="evenodd" d="M617.773 571.995L654.856 594.481C655.185 594.674 655.286 595.109 655.088 595.432C654.89 595.76 654.46 595.862 654.137 595.67L617.049 573.183C616.726 572.985 616.619 572.555 616.817 572.233C617.021 571.904 617.451 571.802 617.773 571.995Z" fill="#CACACA"/>
<path fill-rule="evenodd" clip-rule="evenodd" d="M654.753 594.679L678.388 609.004C678.563 609.112 678.614 609.338 678.512 609.508C678.41 609.678 678.178 609.734 678.009 609.632L654.373 595.302C654.198 595.194 654.147 594.973 654.249 594.798C654.351 594.634 654.577 594.577 654.753 594.679Z" fill="#7E7E7E"/>
<path d="M612.871 627.523C611.519 627.523 610.149 627.478 608.802 627.388C596.503 626.556 586.214 622.107 581.29 615.496C578.777 612.123 577.888 608.376 578.726 604.669C581.047 594.419 596.09 586.694 613.72 586.694C615.067 586.694 616.437 586.739 617.784 586.83C630.089 587.662 640.378 592.11 645.302 598.721C647.815 602.094 648.704 605.835 647.86 609.542C645.545 619.792 630.502 627.523 612.871 627.523ZM613.72 587.922C596.651 587.922 582.122 595.234 579.926 604.941C579.167 608.286 579.983 611.682 582.275 614.761C586.916 620.992 597.115 625.356 608.881 626.154C610.2 626.244 611.547 626.29 612.871 626.29C629.941 626.29 644.47 618.977 646.666 609.271C647.424 605.926 646.615 602.53 644.317 599.451C639.676 593.22 629.477 588.856 617.699 588.052C616.386 587.967 615.045 587.922 613.72 587.922Z" fill="#F0CA30"/>
<path fill-rule="evenodd" clip-rule="evenodd" d="M500.32 637.982C565.385 623.414 607.171 584.662 597.64 542.558C597 539.729 596.134 536.95 595.07 534.216L556.85 511.956L417.093 589.472L500.32 637.982Z" fill="#363636"/>
<path fill-rule="evenodd" clip-rule="evenodd" d="M344.289 618.614C370.59 630.409 448.26 622.485 465.035 607.453C472.336 600.91 475.047 573.494 455.159 575.356C425.745 574.241 360.782 547.652 341.386 563.403C329.755 572.838 319.098 607.311 344.289 618.614Z" fill="#435DA0"/>
<path fill-rule="evenodd" clip-rule="evenodd" d="M450.02 579.754C455.986 574.276 465.726 575.175 471.771 581.758C477.815 588.34 477.878 598.126 471.912 603.599C465.947 609.078 456.201 608.178 450.156 601.595C444.117 595.013 444.055 585.233 450.02 579.754Z" fill="#3B699F"/>
<path fill-rule="evenodd" clip-rule="evenodd" d="M450.021 579.652C453.638 576.426 458.635 575.481 463.367 576.658C473.634 581.791 471.285 599.965 465.648 605.953C461.375 610.085 457.554 611.551 451.691 604.6C445.822 597.656 444.056 584.967 450.021 579.652Z" fill="#345079"/>
<path fill-rule="evenodd" clip-rule="evenodd" d="M539.279 588.148C540.864 588.256 541.979 589.088 541.77 590.004C541.56 590.921 540.111 591.578 538.527 591.47C536.942 591.363 535.827 590.531 536.036 589.614C536.246 588.697 537.7 588.04 539.279 588.148Z" fill="#BD973E"/>
<path fill-rule="evenodd" clip-rule="evenodd" d="M539.279 587.543C540.864 587.65 541.979 588.482 541.77 589.399C541.56 590.316 540.111 590.973 538.527 590.865C536.942 590.758 535.827 589.926 536.036 589.009C536.246 588.092 537.7 587.435 539.279 587.543Z" fill="#F0CA30"/>
<path fill-rule="evenodd" clip-rule="evenodd" d="M548.192 596.015C548.192 593.123 543.636 591.968 538.984 591.968C536.437 591.968 529.6 594.385 529.6 596.06L529.639 597.939C529.679 601.092 533.811 603.633 538.893 603.633C542.289 603.633 548.084 602.15 548.152 597.707L548.192 596.015Z" fill="#BD973E"/>
<path fill-rule="evenodd" clip-rule="evenodd" d="M540.162 590.864C545.465 591.227 549.206 594.006 548.51 597.079C547.814 600.152 542.952 602.348 537.643 601.986C532.34 601.624 528.604 598.845 529.301 595.771C529.991 592.704 534.858 590.502 540.162 590.864Z" fill="#F0CA30"/>
<path fill-rule="evenodd" clip-rule="evenodd" d="M540.064 591.301C544.954 591.629 548.395 594.198 547.755 597.023C547.116 599.853 542.633 601.879 537.743 601.545C532.859 601.211 529.412 598.653 530.051 595.823C530.691 592.993 535.174 590.967 540.064 591.301Z" fill="#BD973E"/>
<path fill-rule="evenodd" clip-rule="evenodd" d="M540.011 592.337C544.069 592.614 547.086 594.499 547.397 596.763C547.386 596.848 547.369 596.932 547.352 597.017C546.74 599.717 542.462 601.653 537.798 601.336C533.74 601.058 530.723 599.174 530.412 596.91C530.423 596.825 530.44 596.746 530.457 596.661C531.068 593.955 535.347 592.02 540.011 592.337Z" fill="#F0CA30"/>
<path fill-rule="evenodd" clip-rule="evenodd" d="M539.279 602.608C540.864 602.716 541.979 603.548 541.77 604.465C541.56 605.382 540.111 606.038 538.527 605.93C536.942 605.823 535.827 604.997 536.036 604.074C536.246 603.157 537.7 602.501 539.279 602.608Z" fill="#BD973E"/>
<path fill-rule="evenodd" clip-rule="evenodd" d="M539.279 602.003C540.864 602.111 541.979 602.943 541.77 603.859C541.56 604.776 540.111 605.433 538.527 605.325C536.942 605.218 535.827 604.386 536.036 603.469C536.246 602.552 537.7 601.895 539.279 602.003Z" fill="#F0CA30"/>
<path fill-rule="evenodd" clip-rule="evenodd" d="M551.826 594.901C553.411 595.008 554.526 595.84 554.316 596.757C554.107 597.674 552.658 598.331 551.073 598.223C549.488 598.115 548.373 597.283 548.583 596.367C548.787 595.45 550.241 594.793 551.826 594.901Z" fill="#BD973E"/>
<path fill-rule="evenodd" clip-rule="evenodd" d="M551.826 594.296C553.41 594.403 554.525 595.235 554.316 596.152C554.107 597.069 552.658 597.726 551.073 597.618C549.488 597.51 548.373 596.678 548.583 595.762C548.786 594.845 550.241 594.188 551.826 594.296Z" fill="#F0CA30"/>
<path fill-rule="evenodd" clip-rule="evenodd" d="M526.716 594.901C528.3 595.008 529.415 595.84 529.206 596.757C529.002 597.674 527.548 598.331 525.963 598.223C524.378 598.115 523.263 597.283 523.473 596.367C523.676 595.45 525.131 594.793 526.716 594.901Z" fill="#BD973E"/>
<path fill-rule="evenodd" clip-rule="evenodd" d="M526.716 594.296C528.3 594.403 529.415 595.235 529.206 596.152C529.002 597.069 527.548 597.726 525.963 597.618C524.378 597.51 523.263 596.678 523.473 595.762C523.676 594.845 525.131 594.188 526.716 594.296Z" fill="#F0CA30"/>
<path fill-rule="evenodd" clip-rule="evenodd" d="M469.354 576.562C475.552 573.506 488.117 572.114 492.565 571.848C498.293 571.508 501.14 572.487 506.867 572.148C505.141 576.087 506.194 578.668 495.995 578.396C488.999 580.677 466.225 597.6 462.557 588.539C461.697 582.828 461.323 579.822 469.354 576.562Z" fill="#C8946B"/>
<path fill-rule="evenodd" clip-rule="evenodd" d="M502.073 591.923L521.815 597.13C526.467 598.352 528.074 592.715 523.62 590.938L504.139 583.116C499.685 581.339 497.478 590.508 502.073 591.923Z" fill="#C8946B"/>
<path fill-rule="evenodd" clip-rule="evenodd" d="M452.134 596.632C450.889 593.411 448.879 578.69 455.909 578.56C466.17 576.443 477.937 577.354 479.454 577.53C482.08 577.83 496.801 580.716 501.815 582.063C508.596 583.886 511.488 590.649 505.93 592.709C506.96 594.73 506.473 598.199 503.649 599.377C503.174 601.98 503.564 604.018 500.751 606.287C500.106 608.053 502.472 610.572 498.114 611.953C492.369 615.156 473.647 609.553 464.246 606.7C455.213 603.967 455.02 604.103 452.134 596.632Z" fill="#E1B187"/>
<path fill-rule="evenodd" clip-rule="evenodd" d="M468.921 562.226L533.471 595.59C533.811 595.766 533.941 596.185 533.765 596.524C533.59 596.864 533.171 596.994 532.832 596.819L468.282 563.454C467.942 563.279 467.806 562.86 467.982 562.52C468.163 562.181 468.582 562.05 468.921 562.226Z" fill="#CACACA"/>
<path fill-rule="evenodd" clip-rule="evenodd" d="M604.375 493.346C617.579 518.962 613.566 535.992 600.158 555.292C594.572 563.335 566.839 569.504 567.614 549.542C561.989 530.791 546.181 510.382 555.31 494.319C562.702 481.325 591.719 468.811 604.375 493.346Z" fill="#435DA0"/>
<path fill-rule="evenodd" clip-rule="evenodd" d="M570.813 539.037C567.695 542.829 566.993 547.878 568.459 552.53C574.294 562.497 593.962 563.844 598.71 553.164C599.582 547.838 597.437 541.941 592.632 537.99C585.732 532.314 575.958 532.783 570.813 539.037Z" fill="#345079"/>
<path fill-rule="evenodd" clip-rule="evenodd" d="M574.798 540.646C568.125 542.44 557.762 549.69 554.248 552.424C549.72 555.944 548.231 558.559 543.703 562.091C547.597 563.913 548.509 566.545 555.996 559.606C562.754 556.702 591.036 554.376 587.81 545.151C584.686 540.3 582.982 537.793 574.798 540.646Z" fill="#C8946B"/>
<path fill-rule="evenodd" clip-rule="evenodd" d="M591.394 539.881C589.22 537.674 580.714 536.819 578.302 537.9C567.26 542.948 566.162 548.048 559.331 557.37C555.194 563.08 553.088 573.438 553.128 580.184C553.711 585.685 554.197 597.69 555.46 598.097C556.592 598.165 557.412 597.848 558.188 596.671C558.759 598.573 557.65 601.505 559.031 601.278C562.998 600.571 563.525 596.218 563.525 596.218C563.542 597.345 562.744 599.586 563.57 599.603C567.883 599.699 568.058 594.668 568.743 592.523C569.411 590.428 570.158 584.254 570.769 582.092C572.258 576.851 575.773 572.634 573.627 583.365C572.456 588.821 571.381 597.441 574.148 596.071C577.352 593.609 577.057 588.878 578.382 583.433C582.932 564.727 584.653 565.22 590.12 558.434C596.125 550.98 596.606 545.167 591.394 539.881Z" fill="#E1B187"/>
<path fill-rule="evenodd" clip-rule="evenodd" d="M613.369 440.847C613.369 425.446 589.095 419.294 564.294 419.294C550.704 419.294 514.295 432.182 514.278 441.084L514.482 461.703C514.697 478.507 536.702 492.056 563.812 492.056C581.901 492.056 612.798 484.161 613.149 460.469L613.369 440.847Z" fill="#AFAFAF"/>
<path fill-rule="evenodd" clip-rule="evenodd" d="M570.559 413.391C598.83 415.304 618.747 430.127 615.045 446.489C611.338 462.852 585.416 474.567 557.145 472.654C528.886 470.741 508.964 455.918 512.671 439.556C516.378 423.188 542.3 411.472 570.559 413.391Z" fill="#E3E3E3"/>
<path fill-rule="evenodd" clip-rule="evenodd" d="M570.035 415.711C596.087 417.477 614.442 431.134 611.035 446.211C607.622 461.295 583.726 472.088 557.674 470.322C531.628 468.556 513.273 454.899 516.686 439.816C520.099 424.744 543.989 413.945 570.035 415.711Z" fill="#979797"/>
<path fill-rule="evenodd" clip-rule="evenodd" d="M570.037 420.098C592.704 421.632 609.536 432.17 611.285 444.814C611.223 445.278 611.138 445.748 611.03 446.212C607.618 461.296 583.728 472.089 557.676 470.323C535.014 468.789 518.182 458.251 516.433 445.601C516.495 445.137 516.58 444.667 516.688 444.203C520.1 429.131 543.99 418.332 570.037 420.098Z" fill="#97A2CE"/>
<path fill-rule="evenodd" clip-rule="evenodd" d="M569.232 423.375C579.278 424.06 587.999 426.771 594.344 430.722C587.886 428.033 579.883 426.443 571.02 426.398C548.166 426.279 527.751 436.467 523.778 449.541C523.206 448.25 522.81 446.92 522.623 445.556C522.68 445.154 522.748 444.747 522.844 444.339C525.804 431.226 546.581 421.836 569.232 423.375Z" fill="white"/>
<path fill-rule="evenodd" clip-rule="evenodd" d="M594.05 586.693C595.029 586.761 595.714 587.271 595.59 587.837C595.459 588.403 594.565 588.804 593.586 588.742C592.607 588.674 591.922 588.165 592.047 587.599C592.177 587.027 593.077 586.625 594.05 586.693Z" fill="#BD973E"/>
<path fill-rule="evenodd" clip-rule="evenodd" d="M594.05 586.32C595.03 586.388 595.714 586.898 595.59 587.463C595.46 588.029 594.565 588.437 593.586 588.369C592.607 588.301 591.922 587.792 592.047 587.226C592.177 586.654 593.077 586.252 594.05 586.32Z" fill="#F0CA30"/>
<path fill-rule="evenodd" clip-rule="evenodd" d="M590.078 587.808C591.663 587.916 592.778 588.748 592.568 589.665C592.359 590.581 590.91 591.238 589.325 591.13C587.74 591.023 586.625 590.191 586.829 589.274C587.044 588.357 588.493 587.701 590.078 587.808Z" fill="#BD973E"/>
<path fill-rule="evenodd" clip-rule="evenodd" d="M590.077 587.203C591.662 587.31 592.777 588.142 592.567 589.059C592.358 589.976 590.909 590.633 589.324 590.525C587.739 590.418 586.624 589.586 586.828 588.669C587.043 587.752 588.492 587.095 590.077 587.203Z" fill="#F0CA30"/>
<path fill-rule="evenodd" clip-rule="evenodd" d="M586.087 590.252C587.066 590.32 587.751 590.83 587.626 591.396C587.496 591.962 586.602 592.369 585.623 592.301C584.644 592.233 583.959 591.724 584.083 591.158C584.213 590.592 585.108 590.184 586.087 590.252Z" fill="#BD973E"/>
<path fill-rule="evenodd" clip-rule="evenodd" d="M586.087 589.88C587.066 589.947 587.751 590.457 587.626 591.023C587.496 591.589 586.602 591.991 585.622 591.928C584.643 591.86 583.958 591.351 584.083 590.785C584.213 590.213 585.107 589.812 586.087 589.88Z" fill="#F0CA30"/>
<defs>
<linearGradient id="paint0_linear_3311_60" x1="480.497" y1="417.66" x2="456.099" y2="434.744" gradientUnits="userSpaceOnUse">
<stop stop-color="#222221"/>
<stop offset="0.31" stop-color="#D8D8D8"/>
<stop offset="0.38" stop-color="#D8D8D8"/>
<stop offset="1" stop-color="#222221"/>
</linearGradient>
</defs>
</svg>
